<?xml version="1.0" encoding="UTF-8"?>
<svg width="500px" height="250px" viewBox="0 0 500 250" version="1.1" xmlns="http://www.w3.org/2000/svg" xmlns:xlink="http://www.w3.org/1999/xlink">
    <title>404</title>
    <defs>
        <polygon id="path-1" points="34.1163435 0.20505618 76.1911357 143.530899 42.8379501 143.530899 0.763157895 0.20505618"></polygon>
        <polygon id="path-3" points="17.7853186 0.20505618 59.8601108 143.530899 43.1828255 143.530899 1.10803324 0.20505618"></polygon>
        <polygon id="path-5" points="0.671105582 1.076794 26.7691136 1.076794 26.7691136 47.752809 0.671105582 47.752809"></polygon>
    </defs>
    <g id="Page-1" stroke="none" stroke-width="1" fill="none" fill-rule="evenodd">
        <g id="404">
            <path d="M0.00027700831,220.947893 L243.60277,220.947893 C243.60277,220.947893 250.414404,140.748455 165.76482,144.113624 C147.051524,144.858006 143.454571,173.674017 143.454571,173.674017 C143.454571,173.674017 145.221884,133.578511 115.852078,133.502587 C86.4808864,133.42823 96.4130194,184.047612 96.4130194,184.047612 C96.4130194,184.047612 75.4421053,167.311657 59.3853186,175.811657 C43.3271468,184.311657 46.3382271,205.683848 46.3382271,205.683848 C46.3382271,205.683848 35.9559557,192.453511 0.00027700831,220.947893" id="Fill-1" fill="#F6CAFF"></path>
            <path d="M276.706925,225.369944 L499.986704,225.369944 C499.986704,225.369944 485.082271,207.084831 458.658449,207.084831 C458.658449,207.084831 469.04349,177.226685 455.155679,173.673315 C438.904986,169.51882 424.105817,185.674719 424.105817,185.674719 C424.105817,185.674719 438.895291,146.871348 419.924377,145.121348 C400.954848,143.372753 364.288643,177.226685 364.288643,177.226685 C364.288643,177.226685 387.52133,132.445787 359.065651,135.944382 C330.609972,139.442978 309.651524,179.817978 309.651524,179.817978 C309.651524,179.817978 295.031025,160.975281 284.02687,165.369944 C273.02133,169.764607 276.706925,225.369944 276.706925,225.369944" id="Fill-3" fill="#F6CAFF"></path>
            <path d="M361.274238,229.130758 L325.759003,217.804916 C324.531856,217.413062 323.270083,217.215028 322.00277,217.215028 L291.649584,217.215028 C286.055402,217.215028 281.522161,212.616713 281.522161,206.943961 L281.522161,173.674298 L231.210526,173.674298 L231.210526,206.943961 C231.210526,212.616713 226.6759,217.215028 221.083102,217.215028 L190.729917,217.215028 C189.463989,217.215028 188.202216,217.413062 186.972299,217.804916 L151.458449,229.130758 C148.601108,230.040871 149.112188,235.486096 152.054017,235.486096 L360.677285,235.486096 C363.620499,235.486096 364.131579,230.040871 361.274238,229.130758" id="Fill-5" fill="#9E12B4"></path>
            <path d="M390.971468,181.401264 L126.651524,181.401264 C121.439612,181.401264 117.215235,177.117556 117.215235,171.833848 L117.215235,9.56839888 C117.215235,4.28469101 121.439612,0.000983146067 126.651524,0.000983146067 L390.971468,0.000983146067 C396.181994,0.000983146067 400.406371,4.28469101 400.406371,9.56839888 L400.406371,171.833848 C400.406371,177.117556 396.181994,181.401264 390.971468,181.401264" id="Fill-7" fill="#9E12B4"></path>
            <path d="M392.571607,0.000702247191 L125.050831,0.000702247191 C120.723961,0.000702247191 117.214266,3.55828652 117.214266,7.94592697 L117.214266,165.510534 L400.406787,165.510534 L400.406787,7.94592697 C400.406787,3.55828652 396.898476,0.000702247191 392.571607,0.000702247191" id="Fill-9" fill="#9E12B4"></path>
            <path d="M385.650416,154.389466 L131.97313,154.389466 C129.636565,154.389466 127.744598,152.469522 127.744598,150.101545 L127.744598,15.4091292 C127.744598,13.0411517 129.636565,11.1226124 131.97313,11.1226124 L385.650416,11.1226124 C387.985596,11.1226124 389.877562,13.0411517 389.877562,15.4091292 L389.877562,150.101545 C389.877562,152.469522 387.985596,154.389466 385.650416,154.389466" id="Fill-11" fill="#FFE3FA"></path>
            <path d="M194.337535,90.5473315 L216.657479,90.5473315 L216.657479,62.6021067 L194.337535,90.5473315 Z M222.048061,55.904073 L222.048061,90.5473315 L229.410942,90.5473315 L229.410942,95.3984551 L222.048061,95.3984551 L222.048061,109.794522 L216.657479,109.794522 L216.657479,95.3984551 L187.960803,95.3984551 L187.960803,91.0094101 L216.201801,55.904073 L222.048061,55.904073 Z" id="Fill-13" fill="#9E12B4"></path>
            <path d="M256.970083,105.559972 C261.573961,105.559972 265.255402,103.493961 268.015789,99.3619382 C270.773407,95.2313202 272.152909,89.7271067 272.152909,82.8492978 C272.152909,75.9728933 270.760942,70.4672753 267.977008,66.3352528 C265.193075,62.2046348 261.5241,60.1386236 256.970083,60.1386236 C252.414681,60.1386236 248.745706,62.2046348 245.961773,66.3352528 C243.177839,70.4672753 241.785873,75.9728933 241.785873,82.8492978 C241.785873,89.7271067 243.177839,95.2313202 245.961773,99.3619382 C248.745706,103.493961 252.414681,105.559972 256.970083,105.559972 M256.970083,110.564185 C253.934072,110.564185 251.136288,109.883006 248.580886,108.523455 C246.025485,107.165309 243.837119,105.265028 242.013019,102.826826 C240.19169,100.390028 238.773407,97.4644663 237.762327,94.0501404 C236.748476,90.6372191 236.244321,86.904073 236.244321,82.8492978 C236.244321,78.795927 236.748476,75.0613764 237.762327,71.6470506 C238.773407,68.2355337 240.204155,65.3099719 242.051801,62.8717697 C243.898061,60.4349719 246.087812,58.534691 248.619668,57.1751404 C251.148753,55.8155899 253.934072,55.1344101 256.970083,55.1344101 C260.006094,55.1344101 262.802493,55.8155899 265.35928,57.1751404 C267.913296,58.534691 270.103047,60.4349719 271.925762,62.8717697 C273.747091,65.3099719 275.163989,68.2355337 276.176454,71.6470506 C277.18892,75.0613764 277.695845,78.795927 277.695845,82.8492978 C277.695845,86.904073 277.18892,90.6372191 276.176454,94.0501404 C275.163989,97.4644663 273.747091,100.390028 271.925762,102.826826 C270.103047,105.265028 267.913296,107.165309 265.35928,108.523455 C262.802493,109.883006 260.006094,110.564185 256.970083,110.564185" id="Fill-15" fill="#9E12B4"></path>
            <path d="M291.359418,90.5473315 L313.679363,90.5473315 L313.679363,62.6021067 L291.359418,90.5473315 Z M319.069945,55.904073 L319.069945,90.5473315 L326.432825,90.5473315 L326.432825,95.3984551 L319.069945,95.3984551 L319.069945,109.794522 L313.679363,109.794522 L313.679363,95.3984551 L284.982687,95.3984551 L284.982687,91.0094101 L313.223684,55.904073 L319.069945,55.904073 Z" id="Fill-17" fill="#9E12B4"></path>
            <g id="Group-21" transform="translate(186.980609, 11.192416)">
                <mask id="mask-2" fill="white">
                    <use xlink:href="#path-1"></use>
                </mask>
                <g id="Clip-20"></g>
                <polygon id="Fill-19" mask="url(#mask-2)" points="76.1911357 143.530899 42.8379501 143.530899 0.763157895 0.20505618 34.1163435 0.20505618"></polygon>
            </g>
            <g id="Group-24" transform="translate(232.686981, 11.192416)">
                <mask id="mask-4" fill="white">
                    <use xlink:href="#path-3"></use>
                </mask>
                <g id="Clip-23"></g>
                <polygon id="Fill-22" mask="url(#mask-4)" points="59.8601108 143.530899 43.1828255 143.530899 1.10803324 0.20505618 17.7853186 0.20505618"></polygon>
            </g>
            <path d="M152.054571,234.902388 L360.677839,234.902388 C361.245706,234.902388 361.723546,234.70014 362.101662,234.367275 C363.591967,233.056882 362.493629,230.530197 360.519945,230.530197 L152.212465,230.530197 C150.238781,230.530197 149.140443,233.056882 150.630748,234.367275 C151.010249,234.70014 151.486704,234.902388 152.054571,234.902388" id="Fill-25" fill="#9E12B4"></path>
            <path d="M30.2506925,249.277809 L207.271468,249.277809 C207.271468,249.277809 186.855956,172.112079 163.83241,175.017978 C145.300554,177.357865 148.614958,208.588202 148.614958,208.588202 C148.614958,208.588202 128.48892,158.308708 107.498615,158.308708 C82.7271468,158.308708 98.1066482,212.832584 98.1066482,212.832584 C98.1066482,212.832584 87.1814404,187.173876 74.5290859,194.755337 C61.8781163,202.335393 71.6551247,228.395787 71.6551247,228.395787 C71.6551247,228.395787 30.2506925,223.619101 30.2506925,249.277809" id="Fill-27" fill="#9E12B4"></path>
            <path d="M190.333934,249.277809 C190.333934,249.277809 167.71482,167.341011 160.430886,168.821348 C153.146953,170.300281 190.333934,249.277809 190.333934,249.277809" id="Fill-29" fill="#F6CAFF"></path>
            <path d="M186.883518,249.277809 C186.883518,249.277809 161.825346,195.732865 152.380748,195.957584 C142.934765,196.182303 186.883518,249.277809 186.883518,249.277809" id="Fill-31" fill="#C033DD"></path>
            <path d="M136.470083,249.277809 C136.470083,249.277809 118.774792,162.772191 108.86759,164.857865 C98.7083102,166.995506 136.470083,249.277809 136.470083,249.277809" id="Fill-33" fill="#F6CAFF"></path>
            <path d="M127.748753,249.277809 C127.748753,249.277809 110.065928,199.164045 103.020222,198.873315 C95.9772853,198.58118 127.748753,249.277809 127.748753,249.277809" id="Fill-35" fill="#C033DD"></path>
            <g id="Group-39" transform="translate(72.022161, 202.203652)">
                <mask id="mask-6" fill="white">
                    <use xlink:href="#path-5"></use>
                </mask>
                <g id="Clip-38"></g>
                <path d="M26.7691136,47.7530899 C26.7691136,47.7530899 12.0308864,0.212359551 2.39099723,1.08876404 C-7.24750693,1.96657303 26.7691136,47.7530899 26.7691136,47.7530899" id="Fill-37" fill="#F6CAFF" mask="url(#mask-6)"></path>
            </g>
            <path d="M103.883795,249.277809 C103.883795,249.277809 96.0250693,225.502528 100.241136,224.919663 C104.458587,224.336798 103.883795,249.277809 103.883795,249.277809" id="Fill-40" fill="#C033DD"></path>
            <path d="M80.881856,249.277809 C80.881856,249.277809 45.4192521,233.623315 41.5868421,238.213202 C37.7530471,242.80309 80.881856,249.277809 80.881856,249.277809" id="Fill-42" fill="#C033DD"></path>
            <path d="M286.881025,243.448596 L432.88795,243.448596 C432.88795,243.448596 435.634488,214.597472 424.39626,214.840449 C413.158033,215.084831 405.415651,226.289888 405.415651,226.289888 C405.415651,226.289888 407.663573,201.914888 390.930886,201.155056 C374.198199,200.395225 362.458587,219.642416 362.458587,219.642416 C362.458587,219.642416 374.03338,186.827809 351.664958,183.185955 C332.187119,180.013202 313.759141,219.895225 313.759141,219.895225 C313.759141,219.895225 308.727285,194.285674 292.21759,200.912079 C278.03615,206.60309 286.881025,243.448596 286.881025,243.448596" id="Fill-44" fill="#9E12B4"></path>
            <path d="M331.017036,243.448596 C331.017036,243.448596 349.041967,181.538483 358.670776,183.218258 C368.299584,184.899438 331.017036,243.448596 331.017036,243.448596" id="Fill-46" fill="#C033DD"></path>
            <path d="M328.348476,243.448596 C328.348476,243.448596 348.711357,203.794101 340.718283,203.794101 C331.902493,203.794101 328.348476,243.448596 328.348476,243.448596" id="Fill-48" fill="#F6CAFF"></path>
            <path d="M335.463019,243.448596 C335.463019,243.448596 351.112604,218.580618 358.062742,220.249157 C365.012881,221.917697 335.463019,243.448596 335.463019,243.448596" id="Fill-50" fill="#F6CAFF"></path>
            <path d="M383.086011,243.448596 C383.086011,243.448596 375.976593,216.685955 382.3741,215.441573 C388.771607,214.195787 383.086011,243.448596 383.086011,243.448596" id="Fill-52" fill="#F6CAFF"></path>
            <path d="M387.492659,243.448596 C387.492659,243.448596 384.223961,190.105899 390.33615,190.39382 C396.449723,190.683146 387.492659,243.448596 387.492659,243.448596" id="Fill-54" fill="#C033DD"></path>
            <path d="M415.785873,243.448596 C415.785873,242.438764 421.137673,198.285674 426.139058,201.035674 C434.622438,205.701404 415.785873,243.448596 415.785873,243.448596" id="Fill-56" fill="#C033DD"></path>
            <path d="M304.534903,243.448596 C304.534903,243.448596 298.562604,205.662079 291.951801,206.17191 C285.340997,206.683146 304.534903,243.448596 304.534903,243.448596" id="Fill-58" fill="#F6CAFF"></path>
        </g>
    </g>
</svg>