<?xml version="1.0" encoding="UTF-8"?>
<svg width="42px" height="48px" viewBox="0 0 42 48" version="1.1" xmlns="http://www.w3.org/2000/svg" xmlns:xlink="http://www.w3.org/1999/xlink">
    <title>artwork_icon</title>
    <defs>
        <polygon id="path-1" points="2.13333333e-05 0.096 35.8505813 0.096 35.8505813 47.893312 2.13333333e-05 47.893312"></polygon>
    </defs>
    <g id="Page-1" stroke="none" stroke-width="1" fill="none" fill-rule="evenodd">
        <g id="artwork_icon">
            <path d="M19.8080213,38.325312 C19.882688,38.3999787 19.9253547,38.4746453 19.9893547,38.5494187 L20.522688,39.082752 C23.2639147,37.4719787 25.834688,35.605312 28.2133547,33.5039787 L24.6080213,29.8986453 C22.506688,32.277312 20.6400213,34.8586453 19.0293547,37.5894187 L19.562688,38.122752 C19.6480213,38.2079787 19.7333547,38.261312 19.8080213,38.325312" id="Fill-1" fill="#9E12B4"></path>
            <polygon id="Fill-3" fill="#9E12B4" points="6.82666667 1.31197867 1.20533333 6.933312 6.82666667 6.933312"></polygon>
            <g id="Group-7" transform="translate(0.000000, 0.010667)">
                <mask id="mask-2" fill="white">
                    <use xlink:href="#path-1"></use>
                </mask>
                <g id="Clip-6"></g>
                <path d="M20.9280213,40.821312 C20.9173547,40.8320853 20.9173547,40.8320853 20.9173547,40.8426453 C20.9813547,41.941312 20.5760213,43.0079787 19.8080213,43.7866453 L19.370688,44.2239787 C18.122688,45.461312 16.4373547,46.1654187 14.6773547,46.1654187 C12.1600213,46.1759787 9.85602133,44.7466453 8.73602133,42.4959787 L8.650688,42.3146453 C8.54402133,42.101312 8.51202133,41.8454187 8.586688,41.621312 C8.70402133,41.269312 9.034688,41.0454187 9.39735467,41.0454187 L10.9013547,41.0454187 C11.3493547,41.0454187 11.786688,40.8639787 12.106688,40.5439787 L14.346688,38.3039787 C15.1253547,37.5254187 16.202688,37.1306453 17.290688,37.1946453 C17.3013547,37.1946453 17.3120213,37.1946453 17.3120213,37.1839787 C18.058688,35.8826453 18.858688,34.6346453 19.7120213,33.4079787 C19.722688,33.3866453 19.7120213,33.3654187 19.690688,33.3654187 L3.44535467,33.3654187 C2.954688,33.3654187 2.56002133,32.9706453 2.56002133,32.4799787 L2.56002133,12.0746453 C2.56002133,11.5839787 2.954688,11.189312 3.44535467,11.189312 L32.4053547,11.189312 C32.8960213,11.189312 33.2905813,11.5839787 33.2905813,12.0746453 L33.2905813,19.7546453 C33.2905813,19.7759787 33.322688,19.797312 33.3333547,19.7759787 L35.8400213,17.7706453 C35.8505813,17.7599787 35.8505813,17.7599787 35.8505813,17.749312 L35.8505813,3.59464533 C35.8400213,1.66397867 34.2720213,0.0959786667 32.3413547,0.0959786667 L8.56535467,0.0959786667 C8.54402133,0.0959786667 8.53335467,0.106645333 8.53335467,0.127978667 L8.53335467,7.75464533 C8.53335467,8.245312 8.138688,8.63997867 7.64802133,8.63997867 L0.0320213333,8.63997867 C0.010688,8.63997867 2.13333333e-05,8.65064533 2.13333333e-05,8.67197867 L2.13333333e-05,44.3946453 C2.13333333e-05,46.3254187 1.56802133,47.893312 3.498688,47.893312 L32.3413547,47.893312 C34.2720213,47.893312 35.8400213,46.3254187 35.8400213,44.3946453 L35.8400213,28.0106453 C35.8400213,27.978752 35.8080213,27.9679787 35.786688,27.989312 L35.5733547,28.2454187 C31.5305813,33.3226453 26.5600213,37.589312 20.9280213,40.821312" id="Fill-5" fill="#9E12B4" mask="url(#mask-2)"></path>
            </g>
            <path d="M18.3786453,39.36 C17.5146453,38.72 16.3199787,38.7946667 15.5306453,39.5306667 L13.2906453,41.7706667 C12.661312,42.4 11.8186453,42.7626667 10.9226453,42.7733333 C11.861312,43.8613333 13.2266453,44.48 14.6559787,44.48 C15.9679787,44.48 17.2159787,43.9573333 18.1439787,43.04 L18.581312,42.6026667 C19.349312,41.8453333 19.4239787,40.6293333 18.773312,39.776 L18.3786453,39.36 Z" id="Fill-8" fill="#9E12B4"></path>
            <path d="M21.3333333,20.5866667 C19.9146667,20.5866667 18.7733333,19.4453333 18.7733333,18.0266667 C18.7733333,16.608 19.9146667,15.4666667 21.3333333,15.4666667 C22.752,15.4666667 23.8933333,16.608 23.8933333,18.0266667 C23.8933333,19.4453333 22.752,20.5866667 21.3333333,20.5866667 M29.8666667,22.56 L31.5733333,21.1946667 L31.5733333,12.9066667 L4.26666667,12.9066667 L4.26666667,25.4826667 L12.224,18.2506667 C12.5653333,17.9413333 13.0773333,17.952 13.3973333,18.2826667 L20.5226667,25.408 L25.0453333,21.6426667 C25.3653333,21.376 25.8346667,21.376 26.1546667,21.6533333 L28.48,23.712 C28.9386667,23.3173333 29.3973333,22.9333333 29.8666667,22.56" id="Fill-10" fill="#9E12B4"></path>
            <path d="M10.2080213,27.2319787 L8.99202133,26.0266453 L11.5520213,23.4666453 L12.7573547,24.6719787 L10.2080213,27.2319787 Z M25.5893547,23.413312 L21.034688,27.2106453 C20.6933547,27.4986453 20.1920213,27.4666453 19.882688,27.157312 L12.7680213,20.053312 L4.266688,27.7866453 L4.266688,31.6799787 L20.9813547,31.6799787 C22.8480213,29.2266453 24.938688,26.933312 27.2105813,24.853312 L25.5893547,23.413312 Z" id="Fill-12" fill="#9E12B4"></path>
            <path d="M41.5039573,16.6293227 C41.1199573,16.2559893 40.5227307,16.2133227 40.096064,16.554656 L30.9332907,23.8933227 C29.1093973,25.354656 27.3813973,26.9439893 25.770624,28.650656 L29.4827307,32.362656 C31.1893973,30.7519893 32.778624,29.034656 34.2399573,27.1999893 L41.578624,18.026656 C41.9199573,17.610656 41.888064,17.002656 41.5039573,16.6293227" id="Fill-14" fill="#9E12B4"></path>
        </g>
    </g>
</svg>