<?xml version="1.0" encoding="UTF-8"?>
<svg width="500px" height="370px" viewBox="0 0 500 370" version="1.1" xmlns="http://www.w3.org/2000/svg" xmlns:xlink="http://www.w3.org/1999/xlink">
    <title>assets_icon</title>
    <g id="Page-1" stroke="none" stroke-width="1" fill="none" fill-rule="evenodd">
        <g id="assets_icon">
            <polygon id="Fill-1" fill="#FCEEFF" points="0.214907652 238.389066 404.250528 369.317498 499.528892 107.424537 91.8943272 0.192864111"></polygon>
            <polygon id="Stroke-2" stroke="#9E12B4" stroke-width="0.25" points="91.8935356 0.193379791 499.5281 107.425052 404.251055 369.316725 0.215435356 238.389582"></polygon>
            <polygon id="Fill-4" fill="#9E12B4" points="170.380475 39.567439 164.8 47.7345122 162.823747 47.1956272 162.675989 39.0620732 158.235356 45.9425261 156.285488 45.4100871 155.819789 35.5928397 157.517678 36.055662 157.681266 44.2137108 162.133773 37.3164983 164.065172 37.8437805 164.214248 46.0134321 168.681266 39.1033275"></polygon>
            <polygon id="Fill-5" fill="#9E12B4" points="187.241029 44.1689756 181.660554 52.337338 179.684301 51.798453 179.536544 43.664899 175.09591 50.5453519 173.146042 50.0129129 172.680343 40.1943763 174.379551 40.6584878 174.54314 48.8165366 178.994327 41.9180348 180.927045 42.4453171 181.076121 50.6149686 185.54314 43.7061533"></polygon>
            <polygon id="Fill-6" fill="#9E12B4" points="204.101583 48.7718014 198.521108 56.9401638 196.544855 56.3999895 196.397098 48.2664355 191.956464 55.1468885 190.006596 54.6157387 189.540897 44.7972021 191.240106 45.2600244 191.403694 53.4193624 195.854881 46.5208606 197.787599 47.0481429 197.936675 55.2177944 202.403694 48.3089791"></polygon>
            <polygon id="Fill-7" fill="#9E12B4" points="206.818734 59.2037387 204.849077 58.6674321 205.236939 57.3137735 207.205277 57.8513693"></polygon>
            <polygon id="Fill-8" fill="#9E12B4" points="224.101715 54.230784 217.515963 58.294338 216.500132 61.8473693 214.976385 61.4309582 215.992216 57.879216 212.514644 51.0683798 214.41438 51.5866376 217.116227 56.8491463 222.201979 53.7125261"></polygon>
            <g id="Group-121" transform="translate(121.372032, 54.954669)" fill="#9E12B4">
                <path d="M114.58628,7.34495122 C114.888391,6.29425436 114.673351,5.31704181 113.946438,4.41331359 C113.31847,3.63463763 112.421372,3.08543902 111.252507,2.76700697 C109.972823,2.41763415 108.839578,2.45502091 107.85277,2.87658885 C106.863325,3.29815679 106.22876,4.00077003 105.946438,4.98700697 C105.654881,6.00418467 105.814512,6.93369686 106.424011,7.77296516 C107.03219,8.61352265 107.995251,9.2117108 109.306596,9.57139721 C110.611346,9.92721603 111.74591,9.89756446 112.708971,9.48244251 C113.672032,9.06732056 114.297361,8.35568293 114.58628,7.34495122 M116.17467,7.77812195 C115.753826,9.25167596 114.794723,10.2740105 113.297361,10.848993 C111.986016,11.3466237 110.526913,11.3762753 108.917414,10.9366585 C107.290765,10.4931742 106.04934,9.72223345 105.194459,8.62254704 C104.218206,7.37460279 103.939842,6.01836585 104.358047,4.55254704 C104.770976,3.1125122 105.735356,2.10049129 107.252507,1.51519512 C108.587599,1.00467247 110.05066,0.965996516 111.643008,1.40174564 C113.243272,1.83878397 114.470185,2.61101394 115.323747,3.71843554 C116.302639,4.98442857 116.587599,6.33808711 116.17467,7.77812195" id="Fill-9"></path>
                <path d="M130.457388,13.4044425 C130.189578,14.3391115 129.506201,14.9695296 128.408575,15.2944077 C127.288522,15.6386237 125.93496,15.5960801 124.350528,15.1641986 C122.767414,14.7310279 121.57876,14.0799826 120.785884,13.2136411 C120.022032,12.3717944 119.772691,11.4874042 120.037863,10.5591812 L121.776649,4.47545296 L123.301715,4.89057491 L121.665831,10.6159059 C121.465303,11.3198084 121.626253,11.9437805 122.151319,12.4878223 C122.675066,13.0331533 123.539182,13.4701916 124.741029,13.7976481 C125.944195,14.1276829 126.911214,14.1882753 127.639446,13.9858711 C128.368997,13.7847561 128.834697,13.3309582 129.035224,12.6270557 L130.671108,6.90301394 L132.196174,7.31813589 L130.457388,13.4044425 Z" id="Fill-11"></path>
                <path d="M142.818997,14.7704774 C143.997098,15.0914878 144.716095,14.7898153 144.981266,13.8628815 C145.264908,12.8676202 144.771504,12.1972369 143.502375,11.8504425 L138.139578,10.3872021 L137.316359,13.268561 L142.818997,14.7704774 Z M144.861214,20.467446 L143.086807,19.9839965 L141.577573,15.8766098 L136.933773,14.6093275 L135.953562,18.0360174 L134.429815,17.6196063 L136.998417,8.63002439 L144.254354,10.6102334 C145.218734,10.8745192 145.904749,11.3347631 146.309763,11.9948328 C146.714776,12.6549024 146.793931,13.4193972 146.544591,14.2883171 C146.326913,15.0489443 145.927177,15.6007213 145.346702,15.9423589 C144.808443,16.2582125 144.159367,16.3755296 143.395515,16.2930209 L144.861214,20.467446 Z" id="Fill-13"></path>
                <polygon id="Fill-15" points="164.875462 16.2396481 159.294987 24.4067213 157.318734 23.8678362 157.169657 15.7342822 152.730343 22.6147352 150.780475 22.0835854 150.313456 12.2637596 152.012665 12.7278711 152.176253 20.8872091 156.62876 13.9887073 158.560158 14.5147003 158.709235 22.6856411 163.176253 15.7755366"></polygon>
                <polygon id="Fill-17" points="175.520976 28.8357631 165.88905 26.2070871 168.457652 17.216216 177.734697 19.7494913 177.350792 21.0889686 169.601451 18.9746829 168.940501 21.2849268 174.328364 22.7546132 173.945778 24.0953798 168.557916 22.6256934 167.798021 25.2827317 175.903562 27.4949965"></polygon>
                <path d="M188.565435,26.7610557 C188.987599,26.8770836 189.374142,26.853878 189.727704,26.6953066 C190.078628,26.535446 190.302902,26.2853415 190.400528,25.9437038 C190.506069,25.5788606 190.461214,25.2514042 190.269921,24.9664913 C190.077309,24.6815784 189.760686,24.477885 189.320053,24.3579895 L183.322691,22.7194181 L182.631398,25.1418223 L188.565435,26.7610557 Z M187.338522,30.6170488 C188.61029,30.9638432 189.362269,30.7279199 189.595778,29.9079895 C189.847757,29.0313345 189.417678,28.4408815 188.308179,28.1366307 L182.247493,26.4825889 L181.519261,29.0287561 L187.338522,30.6170488 Z M190.173615,27.8426934 C191.123483,28.4769791 191.43219,29.3781289 191.098417,30.5461429 C190.648549,32.117676 189.263325,32.5882334 186.944063,31.9539477 L179.611609,29.9531115 L182.18153,20.9635296 L189.614248,22.991439 C190.545646,23.2454111 191.215831,23.6708467 191.620844,24.2625889 C192.027177,24.8556202 192.123483,25.5247143 191.909763,26.2685819 C191.674934,27.0898014 191.097098,27.613216 190.173615,27.8426934 L190.173615,27.8426934 Z" id="Fill-19"></path>
                <path d="M204.868074,29.4312439 C203.697889,28.3818362 202.406332,27.6611742 200.992084,27.2757038 C200.051451,27.0191533 199.299472,26.9301986 198.738786,27.0088397 C198.1781,27.0874808 197.843008,27.3169582 197.733509,27.6972718 C197.620053,28.0956341 197.804749,28.457899 198.28628,28.7853554 C198.629288,29.0238571 199.225594,29.2829861 200.075198,29.567899 C201.3219,29.9984913 202.14248,30.2937178 202.534301,30.4548676 C203.643799,30.9164007 204.415567,31.4282125 204.850923,31.9825679 C205.28496,32.5395017 205.395778,33.190547 205.183377,33.9331254 C204.911609,34.8858432 204.26781,35.5059477 203.254617,35.7921498 C202.242744,36.0757735 200.92876,35.9984216 199.310026,35.5575157 C196.963061,34.916784 195.279683,33.9137875 194.265172,32.5485261 L195.412929,31.6963659 C196.60686,32.9494669 198.034301,33.8042056 199.693931,34.2567143 C200.770449,34.5506516 201.646438,34.6331603 202.32058,34.5055296 C202.970976,34.3791882 203.362797,34.0723589 203.502639,33.5824634 C203.666227,33.0113484 203.402375,32.527899 202.711082,32.1359826 C202.349604,31.9284216 201.329815,31.5403728 199.649077,30.964101 C198.16095,30.451 197.154354,29.9623937 196.630607,29.4982822 C196.01715,28.9568188 195.828496,28.276122 196.062005,27.4561916 C196.30343,26.6117666 196.898417,26.056122 197.848285,25.7879686 C198.795515,25.5211045 200.006596,25.5881429 201.48285,25.9903728 C203.46438,26.530547 204.997361,27.4265401 206.083113,28.6783519 L204.868074,29.4312439 Z" id="Fill-21"></path>
                <polygon id="Fill-23" points="210.082058 38.2693449 208.556992 37.854223 211.126913 28.8633519 212.65066 29.2797631"></polygon>
                <polygon id="Fill-25" points="226.168206 34.4143833 221.771108 33.2141394 219.585092 40.8642439 218.060026 40.4478328 220.247361 32.7990174 215.850264 31.5987735 216.234169 30.2567178 226.550792 33.0749059"></polygon>
                <polygon id="Fill-27" points="237.195119 45.670892 227.563193 43.042216 230.133113 34.0513449 239.408839 36.583331 239.026253 37.9240976 231.275594 35.8098118 230.615963 38.1200557 236.003826 39.5897422 235.62124 40.9305087 230.233377 39.4595331 229.472164 42.1165714 237.579024 44.3301254"></polygon>
                <polygon id="Fill-29" points="242.990106 47.252223 241.021768 46.7146272 241.408311 45.3622578 243.376649 45.8998537"></polygon>
                <path d="M260.310554,44.4975923 L258.788127,44.6045958 C258.133773,43.3811463 256.966227,42.5392997 255.289446,42.0829233 C254.018997,41.7361289 252.891029,41.7722265 251.909499,42.191216 C250.926649,42.6102056 250.293404,43.3128188 250.011082,44.2977666 C249.720844,45.3149443 249.883113,46.2444564 250.497889,47.0863031 C251.108707,47.9281498 252.090237,48.5314948 253.435884,48.8989164 C255.062533,49.3436899 256.483377,49.1992997 257.697098,48.4696132 L258.802639,49.5344913 C257.92533,50.1081847 257.024274,50.4472439 256.092876,50.5542474 C255.164116,50.6625401 254.117942,50.558115 252.956992,50.2409721 C251.330343,49.7961986 250.092876,49.0317038 249.243272,47.9436202 C248.276253,46.6969652 248.003166,45.3368606 248.424011,43.8633066 C248.839578,42.4155366 249.8,41.4022265 251.307916,40.8220871 C252.62058,40.3154321 254.078364,40.2806237 255.679947,40.7163728 C257.983377,41.3467909 259.526913,42.606338 260.310554,44.4975923" id="Fill-31"></path>
                <path d="M273.705409,50.7774077 C274.006201,49.7267108 273.791161,48.7494983 273.064248,47.84577 C272.43628,47.0670941 271.539182,46.5178955 270.371636,46.1994634 C269.091953,45.8513798 267.957388,45.8874774 266.97058,46.3090453 C265.982454,46.7306132 265.34657,47.4345157 265.065567,48.4194634 C264.774011,49.4366411 264.933641,50.3661533 265.541821,51.2067108 C266.15,52.0459791 267.113061,52.6454564 268.425726,53.0038537 C269.730475,53.3596725 270.86372,53.3300209 271.826781,52.9161882 C272.789842,52.499777 273.416491,51.7881394 273.705409,50.7774077 M275.293799,51.2118676 C274.872955,52.6841324 273.912533,53.7064669 272.415172,54.2814495 C271.103826,54.7790801 269.644723,54.8087317 268.035224,54.369115 C266.409894,53.9256307 265.16715,53.1559791 264.313588,52.0562927 C263.336016,50.8070592 263.058971,49.4508223 263.477177,47.9862927 C263.888786,46.5462578 264.853166,45.5342369 266.371636,44.9476516 C267.705409,44.4384181 269.16847,44.398453 270.762137,44.8342021 C272.361082,45.2712404 273.587995,46.0434704 274.441557,47.150892 C275.420449,48.416885 275.705409,49.7718328 275.293799,51.2118676" id="Fill-33"></path>
                <polygon id="Fill-35" points="291.032322 60.3658223 289.507256 59.9494111 291.608839 52.5996899 291.569261 52.5893763 285.118074 57.1454042 282.052111 49.9903519 282.015172 49.9800383 279.913588 57.3310488 278.388522 56.9146376 280.958443 47.9263449 282.864776 48.445892 285.720976 55.0813972 291.702507 50.8579826 293.600923 51.3749512"></polygon>
                <polygon id="Fill-37" points="91.9257256 114.622261 150.212005 61.0509024 146.758179 47.0050836 78.1460422 110.61801"></polygon>
                <polygon id="Fill-39" points="74.2870712 114.047537 151.019261 136.217885 154.409763 150.277885 63.8292876 123.688164"></polygon>
                <polygon id="Fill-41" points="159.615172 151.788697 140.747098 75.8020418 151.49248 65.8816585 173.394855 155.792948"></polygon>
                <polygon id="Fill-43" points="51.217942 151.451314 44.5437995 155.378213 43.4514512 158.908038 41.9369393 158.460686 43.0292876 154.930861 39.7007916 148.049118 41.5886544 148.607341 44.1757256 153.925286 49.3261214 150.893091"></polygon>
                <path d="M62.8955145,159.764324 C63.2200528,158.718784 63.0274406,157.737704 62.3189974,156.818505 C61.7108179,156.028226 60.8242744,155.460979 59.6620053,155.118052 C58.3902375,154.741606 57.2556728,154.754498 56.2583113,155.156728 C55.2609499,155.557669 54.6118734,156.24739 54.3084433,157.227181 C53.9957784,158.237913 54.1343008,159.170003 54.7253298,160.023453 C55.3176781,160.875613 56.2635884,161.494429 57.569657,161.879899 C58.8651715,162.262791 59.9997361,162.257634 60.9733509,161.86185 C61.9443272,161.466066 62.5868074,160.766031 62.8955145,159.764324 M64.4746702,160.229725 C64.0221636,161.694254 63.039314,162.697251 61.5327177,163.238714 C60.2094987,163.710561 58.7490765,163.710561 57.1501319,163.236136 C55.5340369,162.759132 54.3084433,161.963697 53.4773087,160.847251 C52.5300792,159.57739 52.2794195,158.215997 52.7306069,156.760491 C53.1738786,155.329481 54.160686,154.336798 55.691029,153.782443 C57.0353562,153.300282 58.4984169,153.291258 60.0815303,153.759237 C61.6712401,154.229794 62.8823219,155.027808 63.7094987,156.1507 C64.6633245,157.43861 64.917942,158.797425 64.4746702,160.229725" id="Fill-45"></path>
                <path d="M78.6312665,166.149983 C78.3423483,167.079495 77.6470976,167.694443 76.542876,167.997404 C75.4149077,168.319704 74.0626649,168.247509 72.4887863,167.783397 C70.9135884,167.316707 69.7407652,166.643746 68.9663588,165.758066 C68.2209763,164.900749 67.9914248,164.012491 68.275066,163.090714 L70.1457784,157.043084 L71.6616095,157.490436 L69.901715,163.179669 C69.6853562,163.878415 69.8344327,164.506254 70.3476253,165.061899 C70.8594987,165.617544 71.7130607,166.071341 72.9083113,166.425871 C74.103562,166.777822 75.067942,166.86162 75.8014512,166.673397 C76.5349604,166.486463 77.0098945,166.04169 77.2275726,165.344233 L78.987467,159.653711 L80.5019789,160.102352 L78.6312665,166.149983 Z" id="Fill-47"></path>
                <path d="M90.960686,167.771537 C92.1308707,168.117042 92.8564644,167.829551 93.1427441,166.907774 C93.4474934,165.918958 92.9699208,165.239551 91.7073879,164.865683 L86.3788918,163.291571 L85.4923483,166.154882 L90.960686,167.771537 Z M92.8775726,173.50976 L91.1150396,172.988923 L89.6955145,168.851885 L85.0807388,167.487913 L84.0266491,170.893976 L82.5121372,170.446624 L85.2733509,161.512477 L92.485752,163.642233 C93.4448549,163.925857 94.1203166,164.401571 94.5108179,165.068087 C94.9013193,165.737181 94.9633245,166.502965 94.6968338,167.366728 C94.4620053,168.122199 94.0503958,168.664951 93.4620053,168.994986 C92.9171504,169.300526 92.2641161,169.404951 91.5042216,169.305683 L92.8775726,173.50976 Z" id="Fill-49"></path>
                <path d="M111.61029,173.371429 C112.029815,173.496481 112.418997,173.4823 112.772559,173.330174 C113.127441,173.178049 113.358311,172.931812 113.462533,172.592753 C113.575989,172.229199 113.540369,171.901742 113.351715,171.612962 C113.167018,171.324181 112.854354,171.112753 112.416359,170.983833 L106.457256,169.222787 L105.711873,171.629721 L111.61029,173.371429 Z M110.301583,177.201638 C111.564116,177.574216 112.321372,177.353763 112.573351,176.53899 C112.845119,175.667491 112.426913,175.068014 111.324011,174.741847 L105.300264,172.964042 L104.517942,175.493449 L110.301583,177.201638 Z M113.194723,174.486585 C114.130079,175.140209 114.421636,176.047805 114.061478,177.208084 C113.578628,178.770592 112.18285,179.211498 109.876781,178.530801 L102.589182,176.37784 L105.354354,167.442404 L112.740897,169.625017 C113.667018,169.899617 114.326649,170.336655 114.719789,170.936132 C115.111609,171.538188 115.194723,172.209861 114.965172,172.949861 C114.713193,173.764634 114.122164,174.276446 113.194723,174.486585 L113.194723,174.486585 Z" id="Fill-51"></path>
                <path d="M126.16847,178.170728 C127.338654,178.517523 128.064248,178.228742 128.350528,177.306965 C128.655277,176.319439 128.177704,175.640031 126.912533,175.266164 L121.584037,173.692052 L120.700132,176.555362 L126.16847,178.170728 Z M128.085356,183.908951 L126.322823,183.389404 L124.903298,179.252366 L120.288522,177.888394 L119.234433,181.294456 L117.718602,180.847105 L120.481135,171.912958 L127.693536,174.041425 C128.652639,174.326338 129.3281,174.802052 129.718602,175.468568 C130.107784,176.136373 130.169789,176.902157 129.904617,177.76592 C129.669789,178.522679 129.258179,179.065432 128.669789,179.394178 C128.123615,179.701007 127.4719,179.805432 126.712005,179.706164 L128.085356,183.908951 Z" id="Fill-53"></path>
                <path d="M140.053034,183.807233 L139.063588,178.790962 L135.367018,182.423923 L140.053034,183.807233 Z M142.468602,188.158279 L140.811609,187.668383 L140.376253,185.358139 L134.217942,183.53908 L132.546438,185.22793 L130.889446,184.738035 L138.48971,177.231031 L140.397361,177.7957 L142.468602,188.158279 Z" id="Fill-55"></path>
                <polygon id="Fill-57" points="156.347889 192.258704 154.462665 191.700481 149.750264 182.312537 147.482454 189.640341 145.967942 189.1917 148.730475 180.256265 150.613061 180.811909 155.32942 190.2063 157.59591 182.875916 159.111741 183.321979"></polygon>
                <path d="M167.797361,194.185024 C168.706332,194.454467 169.542744,194.387429 170.303958,193.986488 C171.06781,193.585547 171.587599,192.933213 171.865963,192.034641 C172.162797,191.075477 172.088918,190.211714 171.643008,189.439484 C171.195778,188.668544 170.463588,188.132237 169.446438,187.829275 L165.053298,186.532341 L163.112665,192.801714 L167.797361,194.185024 Z M169.732718,186.460146 C171.322427,186.930704 172.455673,187.715826 173.131135,188.81938 C173.805277,189.919066 173.926649,191.165721 173.49657,192.555477 C173.102111,193.831784 172.280211,194.748404 171.036148,195.304049 C169.87124,195.823596 168.613984,195.88161 167.259103,195.481958 L161.185224,193.686105 L163.947757,184.753247 L169.732718,186.460146 Z" id="Fill-59"></path>
                <polygon id="Fill-61" points="202.343008 184.055146 24.2941953 130.741627 25.5118734 126.861139 203.559367 180.174659"></polygon>
                <polygon id="Fill-63" points="12.9065963 190.861213 11.3986807 190.388077 13.7944591 183.123443 13.7575198 183.110551 7.12427441 187.416474 4.35118734 180.149261 4.31292876 180.138948 1.91846966 187.402293 0.41055409 186.927868 3.34063325 178.044 5.22453826 178.637031 7.8116095 185.376962 13.9580475 181.385603 15.8353562 181.977345"></polygon>
                <path d="M24.3135884,191.202463 L23.5800792,187.2833 L20.6302111,190.043474 L24.3135884,191.202463 Z M26.6434037,195.187376 L24.9850923,194.665251 L24.6288918,192.764972 L19.4402375,191.130268 L18.0180739,192.471035 L16.3584433,191.948909 L23.0536939,185.727237 L24.9244063,186.316401 L26.6434037,195.187376 Z" id="Fill-65"></path>
                <path d="M37.2601583,194.006213 C38.1717678,194.293704 38.7443272,194.092589 38.9712401,193.405446 C39.2113456,192.678338 38.844591,192.16008 37.8736148,191.855829 L33.4527704,190.463495 L32.7522427,192.586805 L37.2601583,194.006213 Z M38.9870712,199.072763 L37.2601583,198.528721 L36.1519789,195.118791 L32.3155673,193.912101 L31.4026385,196.685167 L29.894723,196.210742 L32.3828496,188.663774 L38.6229551,190.629801 C39.4448549,190.887641 40.0279683,191.309209 40.3670185,191.895794 C40.7100264,192.48238 40.7614776,193.139871 40.5226913,193.868268 C40.1097625,195.118791 39.217942,195.682171 37.844591,195.557118 L38.9870712,199.072763 Z" id="Fill-67"></path>
                <path d="M54.0240106,197.48099 L52.4883905,197.51193 C51.9237467,196.45092 51.0042216,195.718655 49.7337731,195.317714 C48.6361478,194.973498 47.6796834,194.943847 46.8630607,195.232627 C46.0490765,195.521408 45.5121372,196.056425 45.253562,196.840258 C44.9870712,197.648585 45.0978892,198.400188 45.5899736,199.095066 C46.082058,199.789944 46.8841689,200.313359 47.9976253,200.664021 C49.2878628,201.070118 50.4738786,200.991477 51.5556728,200.429387 L52.6242744,201.511024 C51.0741425,202.40315 49.3736148,202.559143 47.5226913,201.976425 C45.9817942,201.491686 44.8617414,200.725902 44.1572559,199.677784 C43.4540897,198.630955 43.2957784,197.522244 43.6810026,196.351652 C44.0833773,195.133359 44.9514512,194.309561 46.2852243,193.880258 C47.4435356,193.505101 48.7060686,193.532174 50.0688654,193.961477 C51.985752,194.564822 53.3050132,195.737993 54.0240106,197.48099" id="Fill-69"></path>
                <path d="M65.7221636,204.752843 C65.4596306,205.54699 64.8408971,206.067826 63.8633245,206.315352 C62.885752,206.562878 61.7129288,206.471345 60.3501319,206.042042 C58.976781,205.61016 57.9662269,205.014551 57.3211082,204.255213 C56.6746702,203.495875 56.482058,202.721066 56.7419525,201.928209 L58.4147757,196.85908 L59.9226913,197.333505 L58.3474934,202.107408 C57.982058,203.219986 58.7934037,204.088906 60.7854881,204.718035 C62.769657,205.342007 63.9451187,205.098348 64.3131926,203.984481 L65.8870712,199.211868 L67.3923483,199.686293 L65.7221636,204.752843 Z" id="Fill-71"></path>
                <path d="M78.0902375,205.112916 C77.2551451,204.281383 76.2485488,203.680617 75.06781,203.308038 C73.3514512,202.769153 72.3963061,202.796226 72.1997361,203.393125 C72.0836412,203.745077 72.3290237,204.075111 72.9398417,204.385808 C73.794723,204.735181 74.648285,205.089711 75.4992084,205.449397 C76.7221636,205.968944 77.5493404,206.473021 77.9807388,206.961627 C78.4583113,207.500512 78.5796834,208.129641 78.3422164,208.847725 C78.0744063,209.658631 77.4978892,210.169153 76.6126649,210.376714 C75.7248021,210.584275 74.5783641,210.468247 73.1733509,210.026052 C71.1905013,209.400791 69.7472296,208.459676 68.8501319,207.201418 L70.0097625,206.416296 C70.8343008,207.478596 72.0189974,208.254693 73.56781,208.740721 C74.4385224,209.015321 75.148285,209.118456 75.6970976,209.052707 C76.2459103,208.985669 76.5796834,208.772951 76.6984169,208.413265 C76.830343,208.011035 76.6311346,207.637167 76.098153,207.289084 C75.8026385,207.096993 75.3145119,206.875251 74.6403694,206.626436 C73.5836412,206.240965 72.9398417,205.997307 72.7050132,205.89546 C71.7802111,205.506122 71.1430079,205.084554 70.7934037,204.630756 C70.4424802,204.176958 70.3672823,203.652254 70.5638522,203.054066 C70.8013193,202.335983 71.3527704,201.878317 72.2155673,201.684937 C73.0783641,201.491557 74.1627968,201.59985 75.4688654,202.012394 C77.208971,202.560303 78.5005277,203.372498 79.3343008,204.44769 L78.0902375,205.112916 Z" id="Fill-73"></path>
                <path d="M94.8026385,212.987857 L93.9055409,207.954826 L90.1443272,211.520749 L94.8026385,212.987857 Z M97.1377309,217.380157 L95.4899736,216.861899 L95.0994723,214.54392 L88.9741425,212.616568 L87.2709763,214.274477 L85.623219,213.75493 L93.3620053,206.384582 L95.2591029,206.981481 L97.1377309,217.380157 Z" id="Fill-75"></path>
                <path d="M110.123483,218.732655 C109.86095,219.525512 109.242216,220.046348 108.263325,220.293875 C107.284433,220.541401 106.114248,220.449868 104.750132,220.020564 C103.3781,219.588683 102.367546,218.993073 101.721108,218.233735 C101.075989,217.474397 100.883377,216.699589 101.143272,215.906732 L102.816095,210.838892 L104.324011,211.312028 L102.748813,216.08593 C102.382058,217.199798 103.194723,218.067429 105.186807,218.696557 C107.170976,219.32053 108.345119,219.076871 108.713193,217.964293 L110.285752,213.19039 L111.793668,213.664815 L110.123483,218.732655 Z" id="Fill-77"></path>
                <path d="M120.991953,220.366843 C121.903562,220.654334 122.473483,220.454509 122.700396,219.767366 C122.940501,219.040258 122.573747,218.520711 121.60277,218.21646 L117.183245,216.824125 L116.482718,218.947436 L120.991953,220.366843 Z M122.716227,225.433394 L120.989314,224.890641 L119.881135,221.479422 L116.046042,220.272732 L115.133113,223.045798 L113.625198,222.571373 L116.114644,215.024404 L122.354749,216.990432 C123.174011,217.248272 123.757124,217.66984 124.098813,218.256425 C124.441821,218.84301 124.493272,219.500502 124.253166,220.228899 C123.838918,221.479422 122.947098,222.044091 121.573747,221.917749 L122.716227,225.433394 Z" id="Fill-79"></path>
                <polygon id="Fill-81" points="134.934433 229.280362 126.621768 226.663289 129.108575 219.116321 137.13496 221.64315 136.696966 222.968446 130.179815 220.916042 129.641557 222.546878 134.174538 223.97531 133.739182 225.299317 129.203562 223.873463 128.56504 225.813707 135.372427 227.955066"></polygon>
                <polygon id="Fill-83" points="146.122296 232.802969 138.65 230.450181 141.139446 222.903213 142.646042 223.377638 140.59591 229.600599 146.56029 231.477672"></polygon>
                <polygon id="Fill-85" points="151.03219 234.347815 149.525594 233.87339 152.012401 226.326422 153.520317 226.800847"></polygon>
                <path d="M165.146042,236.056261 C164.886148,236.849118 164.266095,237.369955 163.288522,237.617481 C162.309631,237.863718 161.139446,237.773474 159.77533,237.344171 C158.401979,236.912289 157.392744,236.316679 156.746306,235.557341 C156.099868,234.798003 155.908575,234.023195 156.16847,233.229049 L157.841293,228.162498 L159.34657,228.635634 L157.772691,233.409537 C157.405937,234.523404 158.218602,235.391035 160.212005,236.020164 C162.196174,236.644136 163.370317,236.400477 163.738391,235.287899 L165.31095,230.513997 L166.818865,230.988422 L165.146042,236.056261 Z" id="Fill-87"></path>
                <path d="M177.516623,236.416334 C176.68153,235.583512 175.674934,234.982746 174.494195,234.611456 C172.777836,234.071282 171.822691,234.098355 171.624802,234.696544 C171.508707,235.047206 171.755409,235.37724 172.366227,235.687937 C173.221108,236.03731 174.07467,236.39184 174.925594,236.751526 C176.148549,237.271073 176.975726,237.776439 177.407124,238.263756 C177.884697,238.802641 178.006069,239.43177 177.768602,240.149854 C177.500792,240.96076 176.924274,241.471282 176.037731,241.678843 C175.151187,241.887693 174.004749,241.770376 172.598417,241.328181 C170.615567,240.70292 169.173615,239.761805 168.276517,238.503547 L169.436148,237.718425 C170.260686,238.780725 171.445383,239.556822 172.994195,240.044139 C173.864908,240.317449 174.57467,240.420585 175.123483,240.354836 C175.672296,240.287798 176.004749,240.07508 176.124802,239.715394 C176.256728,239.314453 176.056201,238.939296 175.524538,238.591213 C175.229024,238.399122 174.740897,238.178669 174.066755,237.929854 C173.010026,237.543094 172.366227,237.299436 172.131398,237.197589 C171.206596,236.808251 170.569393,236.386683 170.219789,235.932885 C169.868865,235.479087 169.793668,234.954383 169.990237,234.356195 C170.227704,233.638111 170.779156,233.180446 171.641953,232.987066 C172.50343,232.793686 173.587863,232.903268 174.895251,233.314523 C176.635356,233.863721 177.924274,234.674627 178.760686,235.749819 L177.516623,236.416334 Z" id="Fill-89"></path>
                <polygon id="Fill-91" points="15.953562 199.285094 11.2332454 201.952446 10.423219 204.408369 9.36649077 204.075756 10.1765172 201.621122 7.93773087 196.760843 9.25171504 197.174676 10.9918206 200.928822 14.6382586 198.871261"></polygon>
                <path d="M24.0197889,205.247638 C24.2598945,204.521819 24.1372032,203.830808 23.6543536,203.179763 C23.2361478,202.618962 22.6240106,202.211575 21.8153034,201.955024 C20.9313984,201.676557 20.1385224,201.673979 19.4340369,201.942132 C18.7308707,202.210286 18.26781,202.686 18.0435356,203.365408 C17.8113456,204.070599 17.8944591,204.725512 18.298153,205.328857 C18.7005277,205.932202 19.3562005,206.376976 20.2638522,206.664467 C21.1662269,206.946801 21.9591029,206.957115 22.646438,206.692829 C23.3311346,206.427254 23.7889182,205.946383 24.0197889,205.247638 M25.1187335,205.594432 C24.7823219,206.612899 24.0817942,207.303909 23.0197889,207.663596 C22.0870712,207.976871 21.0659631,207.958822 19.9525066,207.60816 C18.8271768,207.25492 17.9815303,206.681226 17.4129288,205.888369 C16.7664908,204.991087 16.6108179,204.034502 16.944591,203.019902 C17.2730871,202.023352 17.9775726,201.341366 19.055409,200.973944 C20.0013193,200.651645 21.025066,200.663247 22.1266491,201.011331 C23.2335092,201.359415 24.0712401,201.933108 24.6358839,202.731122 C25.2875989,203.642585 25.4472296,204.596592 25.1187335,205.594432" id="Fill-93"></path>
                <path d="M34.9488127,209.910927 C34.7350923,210.559394 34.2403694,210.980962 33.4633245,211.179498 C32.6691293,211.390927 31.7245383,211.323889 30.6295515,210.978383 C29.5332454,210.634167 28.7192612,210.148139 28.1889182,209.51901 C27.6783641,208.90922 27.5279683,208.282669 27.7403694,207.641937 L29.1282322,203.433993 L30.1849604,203.765317 L28.8775726,207.725735 C28.717942,208.213052 28.814248,208.652669 29.1651715,209.048453 C29.5174142,209.444237 30.1084433,209.771693 30.9408971,210.033401 C31.7733509,210.295108 32.4474934,210.366014 32.9620053,210.24354 C33.4778364,210.121066 33.8155673,209.816815 33.9751979,209.330787 L35.2812665,205.370369 L36.3366755,205.701693 L34.9488127,209.910927 Z" id="Fill-95"></path>
                <path d="M43.5575198,211.200125 C44.371504,211.455387 44.8846966,211.264585 45.0970976,210.623854 C45.3226913,209.936711 44.9968338,209.454551 44.1168865,209.177373 L40.407124,208.00807 L39.7501319,210.001171 L43.5575198,211.200125 Z M44.8253298,215.240474 L43.5984169,214.853714 L42.6577836,211.940125 L39.4453826,210.929394 L38.6630607,213.298941 L37.6076517,212.967617 L39.6591029,206.748523 L44.6788918,208.327791 C45.346438,208.540509 45.8134565,208.880857 46.0773087,209.352704 C46.3411609,209.82584 46.3754617,210.362146 46.1775726,210.961624 C46.0034301,211.490195 45.7092348,211.865352 45.291029,212.087094 C44.907124,212.294655 44.4506596,212.359115 43.9189974,212.280474 L44.8253298,215.240474 Z" id="Fill-97"></path>
                <path d="M56.2077836,217.799662 C56.8397098,217.998199 57.426781,217.962101 57.9650396,217.691369 C58.5032982,217.419348 58.8766491,216.969418 59.0837731,216.342868 C59.3040897,215.677641 59.2605541,215.070429 58.9597625,214.525098 C58.6563325,213.978477 58.1523747,213.594296 57.4439314,213.371265 L54.3832454,212.408233 L52.9452507,216.772171 L56.2077836,217.799662 Z M57.6616095,212.415969 C58.7684697,212.765341 59.5507916,213.328721 60.0098945,214.108686 C60.4676781,214.887362 60.5362797,215.761439 60.2170185,216.729627 C59.9241425,217.616596 59.3383905,218.248303 58.457124,218.622171 C57.6391821,218.968965 56.755277,218.996038 55.8120053,218.698233 L51.5837731,217.36778 L53.6352243,211.148686 L57.6616095,212.415969 Z" id="Fill-99"></path>
                <polygon id="Fill-101" points="68.8476253 222.802913 62.1840369 220.704098 64.2354881 214.486293 70.6523747 216.506467 70.3463061 217.43469 64.9835092 215.74584 64.457124 217.344446 68.1840369 218.517617 67.8792876 219.44584 64.1510554 218.27138 63.5455145 220.109777 69.1536939 221.87469"></polygon>
                <path d="M78.8296834,220.692882 C78.0407652,219.925808 77.1555409,219.388213 76.1779683,219.080094 C75.5262533,218.876401 75.0051451,218.793892 74.610686,218.833857 C74.2149077,218.873822 73.9734828,219.024659 73.8877309,219.288944 C73.7967018,219.563544 73.9154354,219.822672 74.2426121,220.065042 C74.4761214,220.237794 74.8864116,220.43762 75.4734828,220.660652 C76.3336412,220.994554 76.898285,221.222742 77.1674142,221.346505 C77.9312665,221.699746 78.4576517,222.076192 78.7465699,222.477132 C79.0341689,222.876784 79.0935356,223.337028 78.9233509,223.851418 C78.7056728,224.510199 78.2399736,224.924031 77.5222955,225.098073 C76.8059367,225.270826 75.8890501,225.180582 74.7689974,224.828631 C73.1449868,224.318108 71.9972296,223.570373 71.3257256,222.588003 L72.1515831,222.022045 C72.9523747,222.93222 73.9259894,223.566505 75.0737467,223.92877 C75.8191293,224.162115 76.4299472,224.244624 76.9062005,224.173718 C77.3626649,224.102812 77.6476253,223.89654 77.7584433,223.560059 C77.8877309,223.164275 77.7162269,222.820059 77.2452507,222.527411 C76.9972296,222.373997 76.2953826,222.071035 75.1344327,221.624972 C74.1093668,221.225321 73.4180739,220.857899 73.0658311,220.517551 C72.6515831,220.123056 72.5394459,219.642185 72.726781,219.074937 C72.9193931,218.49093 73.3507916,218.118352 74.0222955,217.957202 C74.6924802,217.794763 75.5381266,217.873404 76.5565963,218.195704 C77.928628,218.626296 78.9761214,219.294101 79.6990765,220.199118 L78.8296834,220.692882 Z" id="Fill-103"></path>
                <polygon id="Fill-105" points="82.2257256 227.014209 81.1703166 226.681596 83.2217678 220.463791 84.2771768 220.795115"></polygon>
                <path d="M94.4547493,227.327742 C94.1209763,228.338474 93.4798153,229.038509 92.533905,229.427847 C91.5866755,229.818474 90.5022427,229.819763 89.2766491,229.434293 C88.1579156,229.081052 87.3149077,228.509937 86.7463061,227.71708 C86.1064644,226.819798 85.9521108,225.865791 86.2858839,224.851192 C86.6143799,223.854641 87.3162269,223.171366 88.3887863,222.801366 C89.3281003,222.477777 90.3782322,222.499693 91.5405013,222.864537 C92.9415567,223.305443 93.9244063,224.167916 94.4890501,225.451958 L93.3478892,225.624711 C92.9138522,224.722272 92.1777045,224.108613 91.1394459,223.781157 C90.3307388,223.527185 89.5919525,223.509136 88.91781,223.725721 C88.1354881,223.979693 87.6236148,224.469589 87.3848285,225.197986 C87.1539578,225.896732 87.2397098,226.549066 87.6420844,227.15499 C88.0444591,227.762202 88.6922164,228.206976 89.589314,228.488021 C90.9956464,228.931505 92.0853562,228.683979 92.8597625,227.745443 L89.8993404,226.813352 L90.2040897,225.886418 L94.4850923,227.233631 L94.4547493,227.327742 Z" id="Fill-107"></path>
                <polygon id="Fill-109" points="103.656069 233.761101 102.343404 233.348557 99.1666227 226.719498 97.4845646 231.818279 96.4291557 231.485666 98.4806069 225.267861 99.7906332 225.679115 102.968734 232.313331 104.652111 227.210683 105.70752 227.543296"></polygon>
                <path d="M112.517282,233.991481 L111.887995,230.468101 L109.254749,232.96399 L112.517282,233.991481 Z M114.150528,237.06622 L112.997493,236.702666 L112.721768,235.080854 L108.435488,233.731063 L107.244195,234.890052 L106.091161,234.527787 L111.508047,229.368415 L112.835224,229.786115 L114.150528,237.06622 Z" id="Fill-111"></path>
                <polygon id="Fill-113" points="124.579947 234.508965 121.53905 233.551091 119.794987 238.841962 118.738259 238.510638 120.483641 233.218477 117.442744 232.261892 117.748813 231.333669 124.886016 233.580742"></polygon>
                <polygon id="Fill-115" points="126.366887 240.910868 125.312797 240.579544 127.364248 234.360449 128.418338 234.693063"></polygon>
                <path d="M137.504617,240.976359 C137.744723,240.249251 137.623351,239.55953 137.139182,238.908484 C136.723615,238.347683 136.110158,237.940296 135.301451,237.685035 C134.417546,237.405279 133.623351,237.401411 132.918865,237.670854 C132.217018,237.939007 131.753958,238.413432 131.528364,239.095418 C131.296174,239.799321 131.380607,240.452944 131.784301,241.056289 C132.185356,241.660923 132.841029,242.105697 133.748681,242.391899 C134.652375,242.675523 135.445251,242.685836 136.131266,242.421551 C136.817282,242.155976 137.275066,241.675105 137.504617,240.976359 M138.603562,241.323153 C138.26715,242.34162 137.567942,243.032631 136.504617,243.392317 C135.574538,243.705592 134.550792,243.687544 133.437335,243.336882 C132.312005,242.983641 131.466359,242.408659 130.900396,241.61838 C130.252639,240.719808 130.095646,239.763223 130.42942,238.748624 C130.757916,237.752073 131.462401,237.070087 132.540237,236.702666 C133.487467,236.381655 134.509894,236.393258 135.611478,236.740052 C136.719657,237.088136 137.556069,237.661829 138.122032,238.458554 C138.772427,239.371307 138.932058,240.325314 138.603562,241.323153" id="Fill-117"></path>
                <polygon id="Fill-119" points="147.833245 247.669105 146.5219 247.256561 143.343799 240.627502 141.661741 245.727571 140.607652 245.394958 142.659103 239.175864 143.96781 239.588408 147.14591 246.221334 148.829288 241.118686 149.884697 241.4513"></polygon>
            </g>
        </g>
    </g>
</svg>