<?xml version="1.0" encoding="UTF-8"?>
<svg width="57px" height="48px" viewBox="0 0 57 48" version="1.1" xmlns="http://www.w3.org/2000/svg" xmlns:xlink="http://www.w3.org/1999/xlink">
    <title>mac_icon</title>
    <defs>
        <polygon id="path-1" points="2.25882353e-05 0 56.8884706 0 56.8884706 47.9774118 2.25882353e-05 47.9774118"></polygon>
    </defs>
    <g id="Page-1" stroke="none" stroke-width="1" fill="none" fill-rule="evenodd">
        <g id="mac_icon">
            <mask id="mask-2" fill="white">
                <use xlink:href="#path-1"></use>
            </mask>
            <g id="Clip-2"></g>
            <path d="M53.3308461,32.4366607 L3.55766965,32.4366607 L3.55766965,3.54630776 L53.3194391,3.54630776 L53.3194391,32.4366607 L53.3308461,32.4366607 Z M28.3821402,38.1853666 C27.6480226,38.1853666 27.0494344,37.5868913 27.0494344,36.8527736 C27.0494344,36.118656 27.6480226,35.5200678 28.3821402,35.5200678 C29.1162579,35.5200678 29.7147332,36.118656 29.7147332,36.8527736 C29.7147332,37.5868913 29.127552,38.1853666 28.3821402,38.1853666 L28.3821402,38.1853666 Z M52.8564932,-4.51764706e-05 L4.04331671,-4.51764706e-05 C1.81837553,-4.51764706e-05 0.0113167059,1.80701365 0.0113167059,4.03195482 L2.25882353e-05,37.2818372 C2.25882353e-05,39.5068913 1.80708141,41.3139501 4.03202259,41.3139501 L20.0019049,41.3139501 L20.0019049,45.3119548 L16.8847285,45.3119548 C16.6362579,45.3119548 16.4442579,45.5153619 16.4442579,45.7637195 L16.4442579,47.5143078 C16.4442579,47.7627784 16.6362579,47.9774795 16.8847285,47.9774795 L39.9247285,47.9774795 C40.1731991,47.9774795 40.4441449,47.7627784 40.4441449,47.5143078 L40.4441449,45.7637195 C40.4441449,45.5153619 40.1731991,45.3119548 39.9247285,45.3119548 L36.8864979,45.3119548 L36.8864979,41.3139501 L52.8451991,41.3139501 C55.0700273,41.3139501 56.8770861,39.4954842 56.8770861,37.2818372 L56.8884932,4.03195482 C56.8884932,1.80701365 55.0814344,-4.51764706e-05 52.8564932,-4.51764706e-05 L52.8564932,-4.51764706e-05 Z" id="Fill-1" fill="#9E12B4" mask="url(#mask-2)"></path>
        </g>
    </g>
</svg>