<?xml version="1.0" encoding="UTF-8"?>
<svg width="499px" height="300px" viewBox="0 0 499 300" version="1.1" xmlns="http://www.w3.org/2000/svg" xmlns:xlink="http://www.w3.org/1999/xlink">
    <title>mobileapps_icon</title>
    <g id="Page-1" stroke="none" stroke-width="1" fill="none" fill-rule="evenodd">
        <g id="mobileapps_icon">
            <path d="M190.286268,280.794176 C173.958803,290.242412 149.259859,291.269471 135.120775,283.086529 L135.120775,293.851235 C149.259859,302.035941 173.958803,301.008882 190.286268,291.560647 L190.286268,280.794176 Z" id="Fill-1" fill="#021D2B"></path>
            <path d="M135.12007,283.086176 L9.76619718,210.544412 C3.66584507,207.013235 0.544366197,202.343824 0.257394366,197.418529 C0.227464789,199.522059 0.215140845,207.258529 0.222183099,207.659118 C0.306690141,212.776765 3.44753521,217.652647 9.76619718,221.309118 L135.12007,293.852647 L135.12007,283.086176 Z" id="Fill-3" fill="#010E16"></path>
            <path d="M476.015141,105.627353 L182.361972,275.565 C170.381338,282.500294 152.258099,283.253824 141.883099,277.246765 L19.853169,206.628529 C9.47992958,200.625 10.7809859,190.135588 22.7616197,183.202059 L316.413028,13.2644118 C328.391901,6.33088235 346.515141,5.57911765 356.891901,11.5826471 L478.92007,82.2026471 C489.296831,88.2061765 487.995775,98.6938235 476.015141,105.627353 M489.009859,78.2867647 L363.655986,5.74323529 C349.515141,-2.43794118 324.816197,-1.41264706 308.488732,8.03735294 L13.7264085,178.617353 C-2.60105634,188.065588 -4.37394366,202.359706 9.76690141,210.544412 L135.120775,283.086176 C149.259859,291.269118 173.958803,290.243824 190.288028,280.793824 L485.048592,110.213824 C501.376056,100.763824 503.148944,86.4714706 489.009859,78.2867647" id="Fill-5" fill="#FFFFFF"></path>
            <path d="M476.015141,105.627353 L182.361972,275.565 C170.381338,282.500294 152.258099,283.253824 141.883099,277.246765 L19.853169,206.628529 C9.47992958,200.625 10.7809859,190.135588 22.7616197,183.202059 L316.413028,13.2644118 C328.391901,6.33088235 346.515141,5.57911765 356.891901,11.5826471 L478.92007,82.2026471 C489.296831,88.2061765 487.995775,98.6938235 476.015141,105.627353 Z M489.009859,78.2867647 L363.655986,5.74323529 C349.515141,-2.43794118 324.816197,-1.41264706 308.488732,8.03735294 L13.7264085,178.617353 C-2.60105634,188.065588 -4.37394366,202.359706 9.76690141,210.544412 L135.120775,283.086176 C149.259859,291.269118 173.958803,290.243824 190.288028,280.793824 L485.048592,110.213824 C501.376056,100.763824 503.148944,86.4714706 489.009859,78.2867647 Z" id="Stroke-7" stroke="#9E12B4" stroke-width="0.25"></path>
            <path d="M498.555713,91.3916471 C498.539261,90.6645882 498.458275,90.1898824 498.322711,89.8669412 C499.586796,96.7863529 495.072711,104.411647 485.048063,110.214 L190.2875,280.794 C173.958275,290.244 149.261092,291.269294 135.120246,283.086353 L9.76637324,210.544588 C3.66602113,207.013412 0.544542254,202.344 0.257570423,197.420471 C0.227640845,199.525765 0.215316901,207.258706 0.220427825,207.659294 C0.308626761,212.776941 3.44947183,217.652824 9.76637324,221.309294 L135.120246,293.852824 C149.261092,302.035765 173.958275,301.008706 190.2875,291.560471 L485.048063,120.978706 C493.452993,116.116941 498.000528,109.970471 498.50757,104.035765 C498.546303,103.585765 498.562148,91.8363529 498.555713,91.3916471" id="Fill-9" fill="#9E12B4"></path>
            <path d="M24.0823944,185.494941 C18.6211268,188.655529 15.4908451,192.649059 15.4908451,196.453765 C15.4908451,200.249647 18.5823944,202.834941 21.1739437,204.336706 L143.203873,274.954941 C147.325352,277.340824 153.1,278.653765 159.464437,278.653765 C167.269014,278.653765 175.133451,276.693176 181.041901,273.273176 L246.274296,235.524353 L92.4855634,145.909059 L24.0823944,185.494941 Z M477.6,84.4937647 L355.571831,13.8755294 C351.450352,11.4896471 345.675704,10.1767059 339.309507,10.1767059 C331.50669,10.1767059 323.642254,12.1372941 317.732042,15.5572941 L183.827113,93.0490588 L337.615845,182.664353 L474.69331,103.335529 C480.152817,100.176706 483.284859,96.1814118 483.284859,92.3767059 C483.284859,88.5808235 480.19331,85.9955294 477.6,84.4937647 L477.6,84.4937647 Z" id="Fill-11" fill="#FCEEFF"></path>
            <path d="M294.365845,58.3515882 L324.705634,75.9104118 C333.087676,80.7598235 347.726761,80.1527647 357.404577,74.5515882 L382.668662,59.9292353 C392.346479,54.3298235 393.397535,45.8574706 385.017254,41.0062941 L354.677465,23.4492353 C346.295423,18.5998235 331.658099,19.2068824 321.980282,24.8080588 L296.714437,39.4304118 C287.03662,45.0298235 285.985563,53.5004118 294.365845,58.3515882" id="Fill-13" fill="#F6CAFF"></path>
            <path d="M456.979049,82.7008235 L426.641021,65.142 C418.258979,60.2925882 403.619894,60.8996471 393.942077,66.5008235 L368.676232,81.1231765 C359.000176,86.7225882 357.947359,95.1949412 366.329401,100.044353 L396.66919,117.603176 C405.049472,122.452588 419.688556,121.845529 429.364613,116.244353 L454.632218,101.623765 C464.310035,96.0225882 465.361092,87.552 456.979049,82.7008235" id="Fill-15" fill="#F6CAFF"></path>
            <path d="M222.476761,99.8221765 L252.816549,117.381 C261.196831,122.230412 275.837676,121.623353 285.513732,116.022176 L310.779577,101.399824 C320.457394,95.8004118 321.508451,87.3280588 313.126408,82.4768824 L282.78838,64.9198235 C274.406338,60.0704118 259.769014,60.6774706 250.091197,66.2786471 L224.823592,80.901 C215.147535,86.5004118 214.096479,94.971 222.476761,99.8221765" id="Fill-17" fill="#F6CAFF"></path>
            <path d="M385.089965,124.171412 L354.750176,106.612588 C346.369894,101.763176 331.729049,102.370235 322.052993,107.971412 L296.787148,122.593765 C287.109331,128.193176 286.058275,136.665529 294.440317,141.514941 L324.778345,159.073765 C333.160387,163.923176 347.797711,163.316118 357.475528,157.714941 L382.743134,143.094353 C392.41919,137.493176 393.472007,129.022588 385.089965,124.171412" id="Fill-19" fill="#F6CAFF"></path>
            <path d="M134.13662,185.713765 L103.796831,168.154941 C95.4165493,163.305529 80.7774648,163.912588 71.0996479,169.513765 L45.8338028,184.134353 C36.1559859,189.735529 35.1049296,198.207882 43.4869718,203.057294 L73.8267606,220.614353 C82.2070423,225.465529 96.8461268,224.858471 106.523944,219.257294 L131.789789,204.636706 C141.467606,199.035529 142.518662,190.563176 134.13662,185.713765" id="Fill-21" fill="#9E12B4"></path>
            <path d="M206.099648,227.406706 L175.759859,209.849647 C167.377817,204.998471 152.738732,205.605529 143.062676,211.206706 L117.796831,225.827294 C108.119014,231.428471 107.067958,239.900824 115.448239,244.750235 L145.789789,262.309059 C154.17007,267.158471 168.809155,266.551412 178.485211,260.950235 L203.752817,246.329647 C213.428873,240.728471 214.47993,232.256118 206.099648,227.406706" id="Fill-23" fill="#9E12B4"></path>
            <path d="M325.065669,70.9897059 L294.935387,53.5526471 C286.611444,48.7367647 287.655458,40.3226471 297.266373,34.7620588 L322.357923,20.2402941 C331.968838,14.6779412 346.50757,14.0744118 354.829754,18.8920588 L384.961796,36.3273529 C393.283979,41.145 392.239965,49.5573529 382.629049,55.1197059 L357.535739,69.6414706 C347.926585,75.2020588 333.389613,75.8055882 325.065669,70.9897059" id="Fill-25" fill="#9E12B4"></path>
            <path d="M396.734683,112.313824 L366.604401,94.8767647 C358.280458,90.0591176 359.324472,81.6467647 368.935387,76.0844118 L394.026937,61.5644118 C403.637852,56.0020588 418.176585,55.3985294 426.498768,60.2144118 L456.63081,77.6514706 C464.952993,82.4673529 463.908979,90.8814706 454.298063,96.4438235 L429.206514,110.963824 C419.595599,116.526176 405.058627,117.129706 396.734683,112.313824" id="Fill-27" fill="#9E12B4"></path>
            <path d="M253.028697,111.431471 L222.898415,93.9944118 C214.574472,89.1767647 215.618486,80.7644118 225.229401,75.2020588 L250.320951,60.6820588 C259.931866,55.1197059 274.470599,54.5161765 282.792782,59.3320588 L312.924824,76.7691176 C321.247007,81.585 320.202993,89.9991176 310.592077,95.5614706 L285.500528,110.081471 C275.889613,115.643824 261.352641,116.247353 253.028697,111.431471" id="Fill-29" fill="#9E12B4"></path>
            <path d="M264.842077,100.605353 L240.94419,86.7753529 C239.720599,86.0677059 239.715317,84.9171176 240.931866,84.213 L245.393134,81.633 C248.22412,79.9935882 252.595599,79.7006471 256.021655,80.9200588 C258.127289,81.6700588 260.497007,82.083 262.884331,82.1182941 C263.352641,82.1253529 263.799824,82.023 264.143134,81.8306471 C264.509331,81.6241765 264.718838,81.3347647 264.720599,81.033 C264.72412,79.8382941 265.085035,78.6559412 265.766373,77.5971176 C265.113204,76.773 265.060387,75.6435882 266.239965,74.9606471 C267.31743,74.3359412 268.762852,74.0659412 269.952993,74.2335882 C275.669542,71.3659412 281.158979,71.4118235 286.275176,74.373 C291.391373,77.3324118 291.468838,80.5088824 286.512852,83.8177059 C286.803345,84.5077059 286.338556,85.3424118 285.25757,85.9671176 C284.076232,86.6500588 282.125528,86.6182941 280.702993,86.2406471 C278.870246,86.6359412 276.827993,86.8441765 274.766373,86.8459412 C274.248768,86.8477059 273.745246,86.9694706 273.387852,87.1812353 C273.055106,87.3788824 272.877289,87.6382941 272.889613,87.9082941 C272.949472,89.2882941 273.666021,90.663 274.960035,91.8788824 C277.06743,93.8641765 276.562148,96.393 273.731162,98.0324118 L269.271655,100.612412 C268.051585,101.318294 266.06743,101.314765 264.842077,100.605353" id="Fill-31" fill="#FFFFFF"></path>
            <path d="M366.406338,49.1714118 L339.874648,33.8167059 L342.700352,30.3649412 C343.008451,29.9872941 342.872887,29.5355294 342.360563,29.2390588 L334.217958,24.5272941 C333.547183,24.1390588 332.466197,24.1372941 331.800704,24.5237647 C331.135211,24.9084706 331.138732,25.5331765 331.807746,25.9214118 L339.092958,30.1390588 L322.85,49.9849412 C322.540141,50.3625882 322.677465,50.8143529 323.189789,51.1108235 L325.78838,52.6143529 C325.610563,52.6002353 325.436268,52.5825882 325.25493,52.5825882 C322.769014,52.5772941 320.760211,53.7384706 320.767235,55.1784706 C320.776056,56.6167059 322.795423,57.7867059 325.283099,57.7902353 C327.769014,57.7955294 329.776056,56.6325882 329.767254,55.1943529 C329.767254,55.0884706 329.735563,54.9878824 329.712676,54.8855294 L335.348239,58.1467059 C335.172183,58.1343529 334.997887,58.1149412 334.814789,58.1131765 C332.330634,58.1096471 330.32007,59.2725882 330.328873,60.7108235 C330.335915,62.1490588 332.357042,63.3190588 334.842958,63.324361 C337.327113,63.3278824 339.335915,62.1649412 339.328873,60.7267059 C339.328873,60.6208235 339.295423,60.5202353 339.274296,60.4178824 L340.475,61.1131765 C341.144014,61.5014118 342.226761,61.5031765 342.892254,61.1184706 C343.557746,60.732 343.555986,60.1055294 342.885211,59.7190588 L326.457394,50.2108235 L329.770775,46.1608235 L348.897535,57.2290588 C350.652817,58.2455294 353.390493,58.4184706 355.466197,57.6437647 L365.57007,53.8708235 C368.371127,52.8243529 368.777817,50.5443529 366.406338,49.1714118" id="Fill-33" fill="#FFFFFF"></path>
            <path d="M419.087324,90.7470029 C417.35493,90.7434706 415.944718,89.9281765 415.939422,88.9258235 C415.934155,87.9217059 417.335563,87.1117059 419.066197,87.1152238 C420.800352,87.1187647 422.208803,87.9340588 422.214099,88.9364118 C422.219366,89.9387647 420.819718,90.7487647 419.087324,90.7470029 M411.85493,86.5593644 C410.120775,86.5575882 408.710563,85.7422941 408.707027,84.7399412 C408.701761,83.7358235 410.101408,82.9258235 411.833803,82.9293415 C413.566197,82.9328824 414.976408,83.7481765 414.981705,84.7505294 C414.986972,85.7528824 413.587324,86.5628824 411.85493,86.5593644 M404.620775,82.3734821 C402.88838,82.3717059 401.478169,81.5564118 401.472872,80.5522941 C401.467606,79.5499412 402.867254,78.7399412 404.599648,78.7434591 C406.333803,78.747 407.744014,79.5622941 407.749311,80.5646471 C407.754577,81.567 406.353169,82.377 404.620775,82.3734821 M435.79507,86.1252353 L409.085563,70.6699412 C407.448239,69.7205294 404.798592,69.717 403.17007,70.6593529 L387.504577,79.7246471 C385.874296,80.6687647 385.883099,82.2005294 387.520423,83.1481765 L404.215845,92.8081765 L404.266901,102.439941 L412.560915,97.6399412 L414.22993,98.6052353 C415.869014,99.5546471 418.518662,99.5581765 420.147183,98.6158235 L435.812676,89.5487647 C437.442958,88.6081765 437.434155,87.0728824 435.79507,86.1252353" id="Fill-35" fill="#FFFFFF"></path>
        </g>
    </g>
</svg>