<?xml version="1.0" encoding="UTF-8"?>
<svg width="27px" height="48px" viewBox="0 0 27 48" version="1.1" xmlns="http://www.w3.org/2000/svg" xmlns:xlink="http://www.w3.org/1999/xlink">
    <title>phone_icon</title>
    <g id="Page-1" stroke="none" stroke-width="1" fill="none" fill-rule="evenodd">
        <path d="M2.62112788,40.4988086 L24,40.4988086 L24,7.12937252 L2.62112788,7.12937252 L2.62112788,40.4988086 Z M13.0675139,46.5131056 C11.8284353,46.5131056 10.827641,45.50278 10.827641,44.2732327 C10.827641,43.0341541 11.8379666,42.0333598 13.0675139,42.0333598 C14.2970612,42.0333598 15.3073868,43.0436855 15.3073868,44.2732327 C15.3073868,45.50278 14.3065925,46.5131056 13.0675139,46.5131056 L13.0675139,46.5131056 Z M8.03494837,3.2406672 C8.31135822,2.96425735 8.81652105,2.95472597 9.0929309,3.2406672 C9.23590151,3.38363781 9.3121525,3.57426529 9.3121525,3.77442415 C9.3121525,3.96505163 9.22637014,4.16521048 9.0929309,4.29864972 C8.94996029,4.44162033 8.7593328,4.51787133 8.56870532,4.51787133 C8.36854647,4.51787133 8.17791898,4.43208896 8.03494837,4.29864972 C7.89197776,4.15567911 7.81572677,3.96505163 7.81572677,3.77442415 C7.81572677,3.57426529 7.90150913,3.37410643 8.03494837,3.2406672 L8.03494837,3.2406672 Z M10.8657665,3.00238284 L15.5647339,3.00238284 C15.974583,3.00238284 16.3177125,3.33598094 16.3177125,3.7553614 C16.3177125,4.17474186 15.9841144,4.50833995 15.5647339,4.50833995 L10.8562351,4.50833995 C10.446386,4.50833995 10.1032566,4.17474186 10.1032566,3.7553614 C10.1127879,3.33598094 10.446386,3.00238284 10.8657665,3.00238284 L10.8657665,3.00238284 Z M21.3121525,0 L5.09928515,0 C2.34471803,0 2.27373675e-13,2.24940429 2.27373675e-13,5.00397141 L2.27373675e-13,43.00556 C2.27373675e-13,45.7601271 2.29706116,48 5.05162828,48 L21.2930898,47.9809373 C24.0476569,47.9809373 26.3065925,45.7410643 26.3065925,42.9864972 L26.3256553,5.00397141 C26.3256553,2.23987292 24.0857824,0 21.3121525,0 L21.3121525,0 Z" id="phone_icon" fill="#9E12B4"></path>
    </g>
</svg>