<?xml version="1.0" encoding="UTF-8"?>
<svg width="500px" height="401px" viewBox="0 0 500 401" version="1.1" xmlns="http://www.w3.org/2000/svg" xmlns:xlink="http://www.w3.org/1999/xlink">
    <title>webapps_icon</title>
    <g id="Page-1" stroke="none" stroke-width="1" fill="none" fill-rule="evenodd">
        <g id="webapps_icon">
            <g id="Group-17" transform="translate(214.583333, 252.537436)">
                <g id="Group-9" transform="translate(0.000000, 45.128205)">
                    <polygon id="Fill-1" fill="#9E12B4" points="0.547083333 54.1003077 2.395 61.2777436 65.0783333 79.4418462 63.2054167 72.262359"></polygon>
                    <polygon id="Fill-3" fill="#9E12B4" points="63.205625 72.2633846 65.0764583 79.4408205 189.301458 26.5177436 187.432708 19.3362051"></polygon>
                    <polygon id="Fill-5" fill="#F6CAFF" points="0.547083333 54.1003077 63.2054167 72.262359 187.4325 19.3372308 124.767917 1.16902564"></polygon>
                    <polygon id="Fill-7" fill="#F6CAFF" points="0.547083333 54.1003077 187.4325 19.3372308 124.767917 1.16902564"></polygon>
                </g>
                <g id="Group-16" transform="translate(27.083333, 0.000000)">
                    <polygon id="Fill-10" fill="#9E12B4" points="28.3627083 104.178462 17.2127083 100.953846 0.554375 36.3220513 11.6752083 39.5466667"></polygon>
                    <polygon id="Fill-12" fill="#C0C5D1" points="11.6758333 39.5470769 0.555 36.3224615 84.93625 0.359384615 96.0675 3.59015385"></polygon>
                    <polygon id="Fill-14" fill="#FCEEFF" points="96.0670833 3.58953846 112.754583 68.2274872 28.3629167 104.178256 11.6754167 39.5464615"></polygon>
                </g>
            </g>
            <polygon id="Fill-18" fill="#9E12B4" points="65.29125 396.899282 80.3391667 399.881846 15.9141667 174.702359 0.887083333 171.719795"></polygon>
            <polygon id="Stroke-19" stroke="#FFFFFF" stroke-width="0.25" points="80.3404167 399.882872 65.2904167 396.900308 0.88625 171.720821 15.9133333 174.703385"></polygon>
            <polygon id="Fill-21" fill="#9E12B4" points="0.886875 171.720205 15.9139583 174.702769 434.845208 3.22379487 419.836875 0.267897436"></polygon>
            <polygon id="Stroke-22" stroke="#FFFFFF" stroke-width="0.25" points="15.9135417 174.702564 0.886458333 171.72 419.836458 0.267692308 434.846875 3.22358974"></polygon>
            <polygon id="Fill-24" fill="#FFFFFF" points="15.913125 174.701744 80.3402083 399.883282 499.283958 228.418667 434.846458 3.22276923"></polygon>
            <polygon id="Stroke-25" stroke="#9E12B4" stroke-width="0.25" points="434.846667 3.22420513 499.284167 228.418051 80.3404167 399.882667 15.9133333 174.703179"></polygon>
            <polygon id="Fill-27" fill="#FCEEFF" points="423.624375 21.1809231 480.859792 224.019897 92.949375 383.115282 33.4910417 177.652718"></polygon>
            <g id="Group-37" transform="translate(83.333333, 47.409231)">
                <g id="Group-34">
                    <path d="M176.682292,143.551385 L318.688542,85.430359 L349.548958,182.373949 L207.542708,240.494974 L176.682292,143.551385 Z M69.953125,301.690872 L22.546875,152.75959 L130.840625,108.427282 L178.246875,257.362667 L69.953125,301.690872 Z M10.5760417,129.676513 L295.634375,13.0036923 L300.886458,29.5042051 L15.828125,146.177026 L10.5760417,129.676513 Z M307.153125,2.01497436 L1.66145833,127.052923 L61.228125,314.220103 L366.732292,189.184205 L307.153125,2.01497436 Z" id="Fill-28" fill="#F6CAFF"></path>
                    <polygon id="Fill-30" fill="#9E12B4" points="126.458542 134.062154 140.221042 177.338051 55.4147917 212.045744 41.6502083 168.763692"></polygon>
                    <path d="M15.9889583,132.139077 L18.461875,139.927795 L173.270208,76.5698462 L294.103542,27.8293333 L291.611875,20.0426667 L15.9889583,132.139077 Z M10.574375,129.677538 L295.632708,13.0047179 L300.886875,29.5052308 L15.8285417,146.178051 L10.574375,129.677538 Z" id="Fill-32" fill="#9E12B4"></path>
                </g>
                <polygon id="Fill-35" fill="#F6CAFF" points="338.405 179.683282 326.29875 141.746872 206.04875 191.318154 217.846667 229.026872"></polygon>
            </g>
            <polygon id="Fill-38" fill="#9E12B4" points="234.49875 254.844923 236.43 260.935179 151.627917 295.640821 149.694583 289.550564"></polygon>
            <polygon id="Fill-39" fill="#9E12B4" points="230.118542 241.082872 232.062292 247.193641 147.264375 281.907487 145.310208 275.790564"></polygon>
            <polygon id="Fill-40" fill="#9E12B4" points="239.739792 271.325128 241.681458 277.437949 156.883542 312.151795 154.941875 306.034872"></polygon>
            <polygon id="Fill-41" fill="#9E12B4" points="244.117917 285.087179 246.061667 291.197949 161.267917 325.90359 159.32625 319.794872"></polygon>
            <polygon id="Fill-42" fill="#F6CAFF" points="398.803542 122.753436 346.834792 144.031385 256.813958 180.87241 254.478542 173.553436 396.484792 115.430359"></polygon>
            <polygon id="Fill-43" fill="#F6CAFF" points="391.226875 98.9253333 393.562292 106.254564 251.556042 164.373538 249.233125 157.050462"></polygon>
            <polygon id="Fill-44" fill="#F6CAFF" points="389.196458 92.5111795 247.179792 150.630154 244.854792 143.290667 386.840208 85.1655385"></polygon>
            <polygon id="Fill-45" fill="#9E12B4" points="429.48375 10.528 446.254583 69.088 399.629583 87.7977436 369.329583 98.8603077 368.875417 96.8705641 353.015 41.8305641"></polygon>
            <polygon id="Stroke-46" stroke="#9E12B4" stroke-width="0.25" points="429.48375 10.528 446.254583 69.088 399.629583 87.7977436 369.329583 98.8603077 368.875417 96.8705641 353.015 41.8305641"></polygon>
            <polygon id="Fill-47" fill="#FFFFFF" points="419.394583 26.7437949 420.400833 30.2514872 372.77375 50.1858462 371.6425 46.2843077"></polygon>
            <polygon id="Stroke-48" stroke="#9E12B4" stroke-width="0.25" points="419.394583 26.7437949 420.400833 30.2514872 372.77375 50.1858462 371.6425 46.2843077"></polygon>
            <polygon id="Fill-49" fill="#FFFFFF" points="423.007917 37.4449231 424.014167 40.9526154 376.37875 60.8869744 375.257917 56.9874872"></polygon>
            <polygon id="Stroke-50" stroke="#9E12B4" stroke-width="0.25" points="423.007917 37.4449231 424.014167 40.9526154 376.37875 60.8869744 375.257917 56.9874872"></polygon>
            <polygon id="Fill-51" fill="#FFFFFF" points="427.668958 47.5372308 428.668958 51.0408205 381.043958 70.9751795 379.912708 67.0797949"></polygon>
            <polygon id="Stroke-52" stroke="#9E12B4" stroke-width="0.25" points="427.668958 47.5372308 428.668958 51.0408205 381.043958 70.9751795 379.912708 67.0797949"></polygon>
            <polygon id="Fill-53" fill="#FFFFFF" points="430.450208 58.1942564 431.452292 61.6998974 383.827292 81.6322051 382.693958 77.7368205"></polygon>
            <polygon id="Stroke-54" stroke="#9E12B4" stroke-width="0.25" points="430.450208 58.1942564 431.452292 61.6998974 383.827292 81.6322051 382.693958 77.7368205"></polygon>
        </g>
    </g>
</svg>